<svg xmlns="http://www.w3.org/2000/svg" width="33" height="30" version="1.1" viewBox="0 0 33 30"><g id="Page-1" fill="none" fill-rule="evenodd" stroke="none" stroke-linecap="round" stroke-linejoin="round" stroke-width="1"><g id="Erigolem-homepage" fill-rule="nonzero" stroke-width=".5" transform="translate(-1055.000000, -45.000000)"><g id="METAMASK_BUTTON" transform="translate(1020.000000, 34.000000)"><g id="MetaMask_Fox" transform="translate(36.000000, 12.000000)"><polygon id="Path" fill="#E2761B" stroke="#E2761B" points="29.456 0 17.36 8.753 19.597 3.589"/><g id="Group" fill="#E4761B" stroke="#E4761B" transform="translate(0.255294, 0.000000)"><polygon id="Path" points="1.276 0 13.275 8.836 11.148 3.589"/><polygon id="Path" points="24.849 20.289 21.627 25.098 28.52 26.946 30.502 20.396"/><polygon id="Path" points="0 20.396 1.969 26.946 8.862 25.098 5.641 20.289"/><polygon id="Path" points="8.473 12.164 6.553 14.995 13.397 15.291 13.154 8.125"/><polygon id="Path" points="22.004 12.164 17.263 8.042 17.105 15.291 23.937 14.995"/><polygon id="Path" points="8.862 25.098 12.971 23.144 9.422 20.443"/><polygon id="Path" points="17.506 23.144 21.627 25.098 21.056 20.443"/></g><g id="Group" fill="#D7C1B3" stroke="#D7C1B3" transform="translate(9.117647, 23.143824)"><polygon id="Path" points="12.765 1.954 8.644 0 8.972 2.618 8.935 3.719"/><polygon id="Path" points="0 1.954 3.829 3.719 3.805 2.618 4.109 0"/></g><polygon id="Path" fill="#233447" stroke="#233447" points="13.008 18.714 9.58 17.731 11.999 16.653"/><polygon id="Path" fill="#233447" stroke="#233447" points="17.98 18.714 18.989 16.653 21.42 17.731"/><g id="Group" fill="#CD6116" stroke="#CD6116" transform="translate(5.896078, 14.994924)"><polygon id="Path" points="3.222 10.103 3.805 5.294 0 5.401"/><polygon id="Path" points="15.403 5.294 15.986 10.103 19.208 5.401"/><polygon id="Path" points="18.296 0 11.464 .296 12.096 3.719 13.105 1.658 15.536 2.736"/><polygon id="Path" points="3.684 2.736 6.115 1.658 7.112 3.719 7.756 .296 .912 0"/></g><g id="Group" fill="#E4751F" stroke="#E4751F" transform="translate(6.807843, 14.994924)"><polygon id="Path" points="0 0 2.869 5.448 2.772 2.736"/><polygon id="Path" points="14.625 2.736 14.503 5.448 17.384 0"/><polygon id="Path" points="6.844 .296 6.2 3.719 7.002 7.758 7.185 2.44"/><polygon id="Path" points="10.552 .296 10.224 2.428 10.37 7.758 11.184 3.719"/></g><polygon id="Path" fill="#F6851B" stroke="#F6851B" points="17.992 18.714 17.178 22.753 17.761 23.144 21.311 20.443 21.433 17.731"/><polygon id="Path" fill="#F6851B" stroke="#F6851B" points="9.58 17.731 9.677 20.443 13.227 23.144 13.81 22.753 13.008 18.714"/><polygon id="Path" fill="#C0AD9E" stroke="#C0AD9E" points="18.053 26.863 18.089 25.761 17.785 25.501 13.202 25.501 12.923 25.761 12.947 26.863 9.118 25.098 10.455 26.164 13.166 28 17.822 28 20.545 26.164 21.882 25.098"/><polygon id="Path" fill="#161616" stroke="#161616" points="17.761 23.144 17.178 22.753 13.81 22.753 13.227 23.144 12.923 25.761 13.202 25.501 17.785 25.501 18.089 25.761"/><g id="Group" fill="#763D16" stroke="#763D16"><polygon id="Path" points="29.967 9.321 31 4.489 29.456 0 17.761 8.457 22.259 12.164 28.617 13.976 30.027 12.377 29.42 11.951 30.392 11.086 29.638 10.518 30.611 9.795"/><polygon id="Path" points="0 4.489 1.033 9.321 .377 9.795 1.349 10.518 .608 11.086 1.58 11.951 .973 12.377 2.371 13.976 8.729 12.164 13.227 8.457 1.532 0"/></g><polygon id="Path" fill="#F6851B" stroke="#F6851B" points="28.617 13.976 22.259 12.164 24.192 14.995 21.311 20.443 25.104 20.396 30.757 20.396"/><polygon id="Path" fill="#F6851B" stroke="#F6851B" points="8.729 12.164 2.371 13.976 .255 20.396 5.896 20.396 9.677 20.443 6.808 14.995"/><polygon id="Path" fill="#F6851B" stroke="#F6851B" points="17.36 15.291 17.761 8.457 19.609 3.589 11.403 3.589 13.227 8.457 13.652 15.291 13.798 17.447 13.81 22.753 17.178 22.753 17.202 17.447"/></g></g></g></g></svg>